<svg width="146" height="50" viewBox="0 0 146 50" fill="none" xmlns="http://www.w3.org/2000/svg">
<rect x="9.96104" y="9.96098" width="4.70072" height="4.70072" fill="white" stroke="white" stroke-width="0.223844"/>
<rect x="9.96104" y="19.8103" width="4.70072" height="4.70072" fill="white" stroke="white" stroke-width="0.223844"/>
<rect x="19.8097" y="9.96098" width="4.70072" height="4.70072" fill="white" stroke="white" stroke-width="0.223844"/>
<rect x="19.8097" y="19.8103" width="4.70072" height="4.70072" fill="white" stroke="white" stroke-width="0.223844"/>
<rect x="9.96104" y="24.735" width="4.70072" height="4.70072" fill="white" stroke="white" stroke-width="0.223844"/>
<rect x="9.96104" y="29.6591" width="4.70072" height="4.70072" fill="white" stroke="white" stroke-width="0.223844"/>
<rect x="9.96104" y="34.5838" width="4.70072" height="4.70072" fill="white" stroke="white" stroke-width="0.223844"/>
<rect x="14.8854" y="34.5838" width="4.70072" height="4.70072" fill="white" stroke="white" stroke-width="0.223844"/>
<rect x="19.8097" y="24.7347" width="4.70072" height="4.70072" fill="white" stroke="white" stroke-width="0.223844"/>
<rect x="19.8097" y="34.5841" width="4.70072" height="4.70072" fill="white" stroke="white" stroke-width="0.223844"/>
<rect x="24.7345" y="9.96098" width="4.70072" height="4.70072" fill="white" stroke="white" stroke-width="0.223844"/>
<rect x="24.7345" y="19.81" width="4.70072" height="4.70072" fill="white" stroke="white" stroke-width="0.223844"/>
<rect x="34.5836" y="9.96098" width="4.70072" height="4.70072" fill="white" stroke="white" stroke-width="0.223844"/>
<rect x="34.5836" y="14.8856" width="4.70072" height="4.70072" fill="white" stroke="white" stroke-width="0.223844"/>
<rect x="34.5836" y="19.81" width="4.70072" height="4.70072" fill="white" stroke="white" stroke-width="0.223844"/>
<rect x="29.6593" y="9.96126" width="4.70072" height="4.70072" fill="white" stroke="white" stroke-width="0.223844"/>
<rect x="24.7345" y="24.7347" width="4.70072" height="4.70072" fill="white" stroke="white" stroke-width="0.223844"/>
<rect x="24.7345" y="34.5838" width="4.70072" height="4.70072" fill="white" stroke="white" stroke-width="0.223844"/>
<rect x="29.7706" y="34.5838" width="4.70072" height="4.70072" fill="white" stroke="white" stroke-width="0.223844"/>
<rect x="34.5836" y="24.7344" width="4.70072" height="4.70072" fill="white" stroke="white" stroke-width="0.223844"/>
<rect x="34.6954" y="29.6594" width="4.70072" height="4.70072" fill="white" stroke="white" stroke-width="0.223844"/>
<path d="M53.7593 18.2629C53.2206 18.2629 52.7458 18.1539 52.3348 17.936C51.9269 17.7149 51.6078 17.4067 51.3774 17.0113C51.147 16.6127 51.0318 16.1457 51.0318 15.6101V11.4068L52.2741 11.3975V15.5915C52.2741 15.8219 52.313 16.0305 52.3909 16.2173C52.4687 16.4041 52.5761 16.5645 52.7131 16.6983C52.8501 16.8291 53.0089 16.9303 53.1895 17.0019C53.3701 17.0735 53.56 17.1093 53.7593 17.1093C53.9648 17.1093 54.1578 17.0735 54.3384 17.0019C54.519 16.9272 54.6762 16.8244 54.8101 16.6937C54.9471 16.5598 55.053 16.3994 55.1277 16.2126C55.2055 16.0258 55.2445 15.8188 55.2445 15.5915V11.3975H56.4868V15.6101C56.4868 16.1457 56.3716 16.6127 56.1412 17.0113C55.9139 17.4067 55.5947 17.7149 55.1837 17.936C54.7727 18.1539 54.2979 18.2629 53.7593 18.2629ZM57.0438 18.1228L59.3089 14.7228L57.1092 11.3975H58.613L60.0749 13.6766L61.518 11.3975H63.0312L60.8315 14.7228L63.0872 18.1228H61.5834L60.0749 15.7689L58.557 18.1228H57.0438ZM66.9094 18.1228V12.5417H64.7703V11.3975H70.272V12.5417H68.133V18.1228H66.9094ZM74.2874 18.1228V15.7269C74.2874 15.5992 74.2796 15.4436 74.264 15.2599C74.2485 15.0762 74.2064 14.894 74.1379 14.7134C74.0694 14.5328 73.9589 14.3834 73.8063 14.2651C73.6569 14.1468 73.4467 14.0876 73.1758 14.0876C73.0575 14.0876 72.933 14.1063 72.8022 14.1436C72.6745 14.181 72.5547 14.2511 72.4426 14.3538C72.3336 14.4566 72.2433 14.6045 72.1717 14.7975C72.1032 14.9905 72.069 15.2427 72.069 15.5541L71.3591 15.2272C71.3591 14.8193 71.44 14.441 71.6019 14.0923C71.7669 13.7436 72.0114 13.4633 72.3352 13.2516C72.6621 13.0368 73.07 12.9294 73.5588 12.9294C73.948 12.9294 74.2656 12.9947 74.5116 13.1255C74.7575 13.2563 74.9506 13.4229 75.0907 13.6252C75.2308 13.8276 75.332 14.0393 75.3943 14.2604C75.4565 14.4815 75.4955 14.6854 75.511 14.8722C75.5266 15.059 75.5344 15.2007 75.5344 15.2972V18.1228H74.2874ZM70.8266 18.1228V11.3975H71.9195V14.8816H72.069V18.1228H70.8266ZM77.9659 18.2629C77.6016 18.2629 77.2933 18.1944 77.0411 18.0574C76.7921 17.9173 76.6021 17.732 76.4714 17.5016C76.3437 17.2681 76.2799 17.0128 76.2799 16.7357C76.2799 16.4991 76.3172 16.2842 76.392 16.0912C76.4667 15.8981 76.585 15.7285 76.7469 15.5821C76.9088 15.4358 77.1252 15.3144 77.3961 15.2178C77.5891 15.1493 77.8164 15.0886 78.078 15.0357C78.3395 14.9828 78.6322 14.9329 78.956 14.8862C79.2829 14.8364 79.6363 14.7835 80.0162 14.7274L79.5725 14.9703C79.5725 14.6589 79.4978 14.4301 79.3483 14.2838C79.202 14.1343 78.9544 14.0596 78.6057 14.0596C78.4096 14.0596 78.2087 14.1078 78.0032 14.2044C77.7977 14.2978 77.653 14.4628 77.5689 14.6994L76.4574 14.3491C76.585 13.9288 76.8248 13.5894 77.1766 13.331C77.5284 13.0695 78.0064 12.9387 78.6104 12.9387C79.0556 12.9387 79.4495 13.0087 79.792 13.1489C80.1376 13.289 80.3976 13.5272 80.5719 13.8634C80.6685 14.0471 80.7261 14.2324 80.7448 14.4192C80.7634 14.6029 80.7728 14.8084 80.7728 15.0357V18.1228H79.6986V17.0673L79.8574 17.2728C79.6176 17.6184 79.3514 17.8706 79.0587 18.0294C78.7692 18.1851 78.4049 18.2629 77.9659 18.2629ZM78.2228 17.2961C78.4625 17.2961 78.6649 17.2541 78.8299 17.17C78.998 17.0829 79.1304 16.9832 79.2269 16.8711C79.3265 16.7559 79.3935 16.6563 79.4277 16.5722C79.4931 16.4321 79.5305 16.2718 79.5398 16.0912C79.5491 15.9075 79.5538 15.7549 79.5538 15.6335L79.9181 15.7316C79.5538 15.7907 79.2533 15.8421 79.0167 15.8857C78.7801 15.9262 78.5855 15.9635 78.4329 15.9978C78.2804 16.032 78.1465 16.0694 78.0313 16.1099C77.9036 16.1597 77.7993 16.2142 77.7184 16.2733C77.6374 16.3325 77.5767 16.3994 77.5362 16.4742C77.4988 16.5458 77.4802 16.6267 77.4802 16.717C77.4802 16.8353 77.5097 16.9381 77.5689 17.0253C77.6281 17.1093 77.7121 17.1763 77.8211 17.2261C77.9332 17.2728 78.0671 17.2961 78.2228 17.2961ZM81.8942 12.3596V11.2667H83.1225V12.3596H81.8942ZM81.8942 18.1228V13.0788H83.1225V18.1228H81.8942ZM84.4257 18.1228V11.2574H85.654V18.1228H84.4257ZM88.2695 18.2629C87.9052 18.2629 87.597 18.1944 87.3448 18.0574C87.0957 17.9173 86.9058 17.732 86.775 17.5016C86.6473 17.2681 86.5835 17.0128 86.5835 16.7357C86.5835 16.4991 86.6209 16.2842 86.6956 16.0912C86.7703 15.8981 86.8886 15.7285 87.0506 15.5821C87.2125 15.4358 87.4289 15.3144 87.6997 15.2178C87.8928 15.1493 88.1201 15.0886 88.3816 15.0357C88.6432 14.9828 88.9358 14.9329 89.2596 14.8862C89.5866 14.8364 89.94 14.7835 90.3198 14.7274L89.8761 14.9703C89.8761 14.6589 89.8014 14.4301 89.652 14.2838C89.5056 14.1343 89.2581 14.0596 88.9094 14.0596C88.7132 14.0596 88.5124 14.1078 88.3069 14.2044C88.1014 14.2978 87.9566 14.4628 87.8725 14.6994L86.761 14.3491C86.8886 13.9288 87.1284 13.5894 87.4802 13.331C87.8321 13.0695 88.31 12.9387 88.914 12.9387C89.3593 12.9387 89.7531 13.0087 90.0956 13.1489C90.4412 13.289 90.7012 13.5272 90.8756 13.8634C90.9721 14.0471 91.0297 14.2324 91.0484 14.4192C91.0671 14.6029 91.0764 14.8084 91.0764 15.0357V18.1228H90.0022V17.0673L90.161 17.2728C89.9213 17.6184 89.6551 17.8706 89.3624 18.0294C89.0728 18.1851 88.7085 18.2629 88.2695 18.2629ZM88.5264 17.2961C88.7661 17.2961 88.9685 17.2541 89.1335 17.17C89.3017 17.0829 89.434 16.9832 89.5305 16.8711C89.6302 16.7559 89.6971 16.6563 89.7313 16.5722C89.7967 16.4321 89.8341 16.2718 89.8434 16.0912C89.8528 15.9075 89.8574 15.7549 89.8574 15.6335L90.2217 15.7316C89.8574 15.7907 89.557 15.8421 89.3204 15.8857C89.0837 15.9262 88.8891 15.9635 88.7366 15.9978C88.584 16.032 88.4501 16.0694 88.3349 16.1099C88.2073 16.1597 88.1029 16.2142 88.022 16.2733C87.941 16.3325 87.8803 16.3994 87.8398 16.4742C87.8025 16.5458 87.7838 16.6267 87.7838 16.717C87.7838 16.8353 87.8134 16.9381 87.8725 17.0253C87.9317 17.1093 88.0158 17.1763 88.1247 17.2261C88.2368 17.2728 88.3707 17.2961 88.5264 17.2961ZM95.5558 18.1228V15.7269C95.5558 15.5992 95.548 15.4436 95.5325 15.2599C95.5169 15.0762 95.4749 14.894 95.4064 14.7134C95.3379 14.5328 95.2273 14.3834 95.0748 14.2651C94.9253 14.1468 94.7151 14.0876 94.4443 14.0876C94.3259 14.0876 94.2014 14.1063 94.0706 14.1436C93.943 14.181 93.8231 14.2511 93.711 14.3538C93.602 14.4566 93.5117 14.6045 93.4401 14.7975C93.3716 14.9905 93.3374 15.2427 93.3374 15.5541L92.6275 15.2272C92.6275 14.8193 92.7084 14.441 92.8703 14.0923C93.0354 13.7436 93.2798 13.4633 93.6036 13.2516C93.9305 13.0368 94.3384 12.9294 94.8272 12.9294C95.2164 12.9294 95.534 12.9947 95.78 13.1255C96.026 13.2563 96.219 13.4229 96.3591 13.6252C96.4992 13.8276 96.6004 14.0393 96.6627 14.2604C96.725 14.4815 96.7639 14.6854 96.7794 14.8722C96.795 15.059 96.8028 15.2007 96.8028 15.2972V18.1228H95.5558ZM92.0951 18.1228V13.0788H93.1879V14.7181H93.3374V18.1228H92.0951ZM99.7783 18.2629C99.3112 18.2629 98.9033 18.1462 98.5546 17.9126C98.209 17.6791 97.9397 17.3615 97.7467 16.9599C97.5536 16.5582 97.4571 16.1052 97.4571 15.6008C97.4571 15.0871 97.5552 14.6309 97.7513 14.2324C97.9475 13.8307 98.223 13.5147 98.578 13.2843C98.936 13.0539 99.3548 12.9387 99.8343 12.9387C100.314 12.9387 100.717 13.0555 101.044 13.289C101.371 13.5225 101.618 13.8401 101.787 14.2417C101.955 14.6434 102.039 15.0964 102.039 15.6008C102.039 16.1052 101.953 16.5582 101.782 16.9599C101.614 17.3615 101.362 17.6791 101.025 17.9126C100.692 18.1462 100.276 18.2629 99.7783 18.2629ZM99.9698 17.17C100.259 17.17 100.491 17.1047 100.666 16.9739C100.84 16.8431 100.966 16.6594 101.044 16.4228C101.122 16.1862 101.161 15.9122 101.161 15.6008C101.161 15.2894 101.122 15.0154 101.044 14.7788C100.966 14.5422 100.843 14.3585 100.675 14.2277C100.507 14.0969 100.287 14.0316 100.016 14.0316C99.7269 14.0316 99.4887 14.1032 99.3019 14.2464C99.1151 14.3865 98.9765 14.5749 98.8862 14.8115C98.799 15.0481 98.7555 15.3112 98.7555 15.6008C98.7555 15.8904 98.799 16.155 98.8862 16.3948C98.9734 16.6314 99.1057 16.8198 99.2832 16.9599C99.4638 17.1 99.6926 17.17 99.9698 17.17ZM101.161 18.1228V14.6387H101.011V11.3975H102.244V18.1228H101.161ZM104.857 18.1135V17.0486L107.697 14.5266C107.912 14.3367 108.063 14.1577 108.15 13.9895C108.237 13.8183 108.281 13.6579 108.281 13.5085C108.281 13.2968 108.237 13.1084 108.15 12.9434C108.063 12.7783 107.94 12.6491 107.781 12.5557C107.622 12.4592 107.437 12.4109 107.225 12.4109C107.007 12.4109 106.814 12.4623 106.646 12.5651C106.478 12.6647 106.347 12.797 106.254 12.962C106.16 13.1271 106.117 13.3061 106.123 13.4991H104.862C104.862 13.0414 104.962 12.646 105.161 12.3129C105.363 11.9766 105.644 11.7166 106.002 11.5329C106.363 11.3492 106.78 11.2574 107.253 11.2574C107.689 11.2574 108.08 11.3539 108.426 11.5469C108.771 11.7368 109.044 12.0031 109.243 12.3456C109.442 12.6849 109.542 13.0788 109.542 13.5272C109.542 13.8572 109.495 14.1312 109.402 14.3491C109.311 14.5671 109.176 14.7695 108.995 14.9563C108.815 15.14 108.592 15.347 108.328 15.5775L106.441 17.2401L106.338 16.9599H109.542V18.1135H104.857ZM113.05 18.1228V17.058H110.107V15.909L112.237 11.3975H113.643L111.513 15.909H113.05V14.209H114.292V15.909H114.899V17.058H114.292V18.1228H113.05Z" fill="white"/>
<path d="M56.7883 38.3775C55.5657 38.3775 54.5129 38.1115 53.6298 37.5794C52.7525 37.0473 52.0761 36.303 51.6006 35.3464C51.1251 34.3898 50.8874 33.2775 50.8874 32.0096C50.8874 30.7416 51.1251 29.6294 51.6006 28.6727C52.0761 27.7161 52.7525 26.9718 53.6298 26.4397C54.5129 25.9076 55.5657 25.6416 56.7883 25.6416C58.1978 25.6416 59.3752 25.9925 60.3204 26.6944C61.2714 27.3907 61.9393 28.3331 62.3242 29.5218L60.0827 30.1416C59.8506 29.3831 59.4601 28.7944 58.911 28.3756C58.3676 27.951 57.6601 27.7388 56.7883 27.7388C56.0016 27.7388 55.3449 27.9171 54.8185 28.2737C54.2921 28.6246 53.8959 29.1199 53.6298 29.7595C53.3638 30.3992 53.2308 31.1492 53.2308 32.0096C53.2308 32.8699 53.3638 33.6199 53.6298 34.2596C53.8959 34.8992 54.2921 35.3973 54.8185 35.7539C55.3449 36.1049 56.0016 36.2803 56.7883 36.2803C57.6601 36.2803 58.3676 36.0681 58.911 35.6435C59.4601 35.219 59.8506 34.6303 60.0827 33.8775L62.3242 34.4973C61.9393 35.686 61.2714 36.6313 60.3204 37.3332C59.3752 38.0294 58.1978 38.3775 56.7883 38.3775ZM67.9478 38.3775C67.0308 38.3775 66.2242 38.1709 65.528 37.7577C64.8374 37.3445 64.2997 36.7756 63.9148 36.0511C63.5299 35.3209 63.3374 34.4832 63.3374 33.5379C63.3374 32.5813 63.5327 31.7407 63.9233 31.0162C64.3195 30.286 64.8629 29.7171 65.5535 29.3095C66.2497 28.902 67.0478 28.6982 67.9478 28.6982C68.8705 28.6982 69.6799 28.9048 70.3761 29.318C71.0724 29.7312 71.6129 30.3029 71.9978 31.0331C72.3884 31.7577 72.5837 32.5926 72.5837 33.5379C72.5837 34.4888 72.3884 35.3294 71.9978 36.0596C71.6073 36.7841 71.0639 37.353 70.3676 37.7662C69.6714 38.1737 68.8648 38.3775 67.9478 38.3775ZM67.9478 36.2973C68.712 36.2973 69.2808 36.0398 69.6544 35.5247C70.0337 35.0096 70.2233 34.3473 70.2233 33.5379C70.2233 32.7001 70.0308 32.0322 69.6459 31.5341C69.2667 31.0303 68.7006 30.7784 67.9478 30.7784C67.4327 30.7784 67.0082 30.8973 66.6742 31.135C66.3459 31.3671 66.0997 31.6897 65.9355 32.103C65.777 32.5105 65.6978 32.9888 65.6978 33.5379C65.6978 34.3813 65.8874 35.052 66.2667 35.5501C66.6516 36.0483 67.212 36.2973 67.9478 36.2973ZM80.3785 38.1228V33.7671C80.3785 33.535 80.3643 33.252 80.336 32.9181C80.3077 32.5841 80.2313 32.253 80.1068 31.9246C79.9823 31.5963 79.7813 31.3246 79.5039 31.1095C79.2322 30.8945 78.8502 30.7869 78.3577 30.7869C78.1426 30.7869 77.9162 30.8209 77.6785 30.8888C77.4464 30.9567 77.2285 31.0841 77.0247 31.2709C76.8266 31.4577 76.6624 31.7265 76.5322 32.0775C76.4077 32.4284 76.3454 32.8869 76.3454 33.453L75.0549 32.8586C75.0549 32.1171 75.202 31.4294 75.4964 30.7954C75.7964 30.1614 76.2407 29.652 76.8294 29.2671C77.4237 28.8765 78.1653 28.6812 79.0539 28.6812C79.7615 28.6812 80.3389 28.8001 80.786 29.0378C81.2332 29.2756 81.5841 29.5784 81.8389 29.9463C82.0936 30.3143 82.2776 30.6992 82.3908 31.1011C82.504 31.5029 82.5747 31.8737 82.603 32.2133C82.6313 32.553 82.6455 32.8105 82.6455 32.986V38.1228H80.3785ZM74.0869 38.1228V28.9529H76.0737V31.9331H76.3454V38.1228H74.0869ZM85.2829 38.1228V28.936C85.2829 28.7039 85.2885 28.4435 85.2999 28.1548C85.3168 27.8605 85.365 27.569 85.4442 27.2803C85.5291 26.9859 85.6791 26.7171 85.8942 26.4737C86.1716 26.168 86.4716 25.9586 86.7942 25.8454C87.1168 25.7322 87.431 25.6699 87.7367 25.6586C88.0423 25.6472 88.3055 25.6416 88.5263 25.6416H89.664V27.4501H88.6112C88.2376 27.4501 87.9603 27.5435 87.7791 27.7303C87.6036 27.9171 87.5159 28.1463 87.5159 28.418V38.1228H85.2829ZM83.831 30.685V28.9529H89.664V30.685H83.831ZM94.593 38.3775C93.6533 38.3775 92.8269 38.1766 92.1137 37.7747C91.4062 37.3671 90.8514 36.8096 90.4496 36.102C90.0477 35.3888 89.8467 34.5709 89.8467 33.6482C89.8467 32.6464 90.042 31.7775 90.4326 31.0416C90.8288 30.3001 91.3722 29.7256 92.0628 29.318C92.759 28.9048 93.5571 28.6982 94.4571 28.6982C95.4194 28.6982 96.2345 28.9246 96.9024 29.3775C97.576 29.8246 98.0741 30.4586 98.3968 31.2794C98.7194 32.0945 98.8355 33.0539 98.7449 34.1577H96.5373V33.3426C96.5317 32.3916 96.3732 31.7039 96.0619 31.2794C95.7505 30.8492 95.2496 30.6341 94.559 30.6341C93.7552 30.6341 93.1609 30.8803 92.776 31.3728C92.3967 31.8652 92.2071 32.5869 92.2071 33.5379C92.2071 34.4152 92.3967 35.0945 92.776 35.5756C93.1609 36.0568 93.7213 36.2973 94.4571 36.2973C94.9269 36.2973 95.3288 36.1954 95.6628 35.9917C96.0024 35.7822 96.26 35.4822 96.4354 35.0917L98.66 35.7369C98.3147 36.5747 97.7713 37.2256 97.0298 37.6898C96.2883 38.1483 95.476 38.3775 94.593 38.3775ZM91.5109 34.1577V32.4935H97.6666V34.1577H91.5109ZM100.315 38.1228V28.9529H102.285V31.1945L102.064 30.9058C102.183 30.5888 102.338 30.3029 102.531 30.0482C102.729 29.7878 102.967 29.5727 103.244 29.4029C103.47 29.2614 103.714 29.1539 103.974 29.0803C104.24 29.001 104.512 28.9529 104.789 28.936C105.072 28.9133 105.352 28.919 105.63 28.9529V31.0331C105.369 30.9539 105.069 30.9284 104.73 30.9567C104.39 30.985 104.082 31.0699 103.804 31.2114C103.527 31.3416 103.295 31.5143 103.108 31.7294C102.927 31.9445 102.788 32.1963 102.692 32.485C102.602 32.7737 102.556 33.0935 102.556 33.4445V38.1228H100.315ZM110.978 38.3775C110.038 38.3775 109.212 38.1766 108.499 37.7747C107.791 37.3671 107.236 36.8096 106.834 36.102C106.433 35.3888 106.232 34.5709 106.232 33.6482C106.232 32.6464 106.427 31.7775 106.817 31.0416C107.214 30.3001 107.757 29.7256 108.448 29.318C109.144 28.9048 109.942 28.6982 110.842 28.6982C111.804 28.6982 112.619 28.9246 113.287 29.3775C113.961 29.8246 114.459 30.4586 114.782 31.2794C115.104 32.0945 115.22 33.0539 115.13 34.1577H112.922V33.3426C112.917 32.3916 112.758 31.7039 112.447 31.2794C112.135 30.8492 111.634 30.6341 110.944 30.6341C110.14 30.6341 109.546 30.8803 109.161 31.3728C108.782 31.8652 108.592 32.5869 108.592 33.5379C108.592 34.4152 108.782 35.0945 109.161 35.5756C109.546 36.0568 110.106 36.2973 110.842 36.2973C111.312 36.2973 111.714 36.1954 112.048 35.9917C112.387 35.7822 112.645 35.4822 112.82 35.0917L115.045 35.7369C114.7 36.5747 114.156 37.2256 113.415 37.6898C112.673 38.1483 111.861 38.3775 110.978 38.3775ZM107.896 34.1577V32.4935H114.051V34.1577H107.896ZM122.725 38.1228V33.7671C122.725 33.535 122.711 33.252 122.683 32.9181C122.655 32.5841 122.578 32.253 122.454 31.9246C122.329 31.5963 122.128 31.3246 121.851 31.1095C121.579 30.8945 121.197 30.7869 120.705 30.7869C120.49 30.7869 120.263 30.8209 120.025 30.8888C119.793 30.9567 119.575 31.0841 119.372 31.2709C119.174 31.4577 119.009 31.7265 118.879 32.0775C118.755 32.4284 118.692 32.8869 118.692 33.453L117.402 32.8586C117.402 32.1171 117.549 31.4294 117.843 30.7954C118.143 30.1614 118.588 29.652 119.176 29.2671C119.771 28.8765 120.512 28.6812 121.401 28.6812C122.108 28.6812 122.686 28.8001 123.133 29.0378C123.58 29.2756 123.931 29.5784 124.186 29.9463C124.441 30.3143 124.625 30.6992 124.738 31.1011C124.851 31.5029 124.922 31.8737 124.95 32.2133C124.978 32.553 124.992 32.8105 124.992 32.986V38.1228H122.725ZM116.434 38.1228V28.9529H118.421V31.9331H118.692V38.1228H116.434ZM130.716 38.3775C129.765 38.3775 128.95 38.1653 128.271 37.7407C127.597 37.3162 127.079 36.7388 126.717 36.0086C126.36 35.2784 126.182 34.4549 126.182 33.5379C126.182 32.6096 126.369 31.7803 126.742 31.0501C127.116 30.3199 127.642 29.7454 128.322 29.3265C129.006 28.9076 129.816 28.6982 130.75 28.6982C131.82 28.6982 132.717 28.9671 133.441 29.5048C134.172 30.0426 134.641 30.7784 134.851 31.7124L132.626 32.3067C132.485 31.8256 132.239 31.452 131.888 31.186C131.542 30.9143 131.152 30.7784 130.716 30.7784C130.212 30.7784 129.799 30.9001 129.476 31.1435C129.159 31.3812 128.924 31.7096 128.772 32.1284C128.619 32.5416 128.542 33.0114 128.542 33.5379C128.542 34.3586 128.723 35.0237 129.086 35.5332C129.454 36.0426 129.997 36.2973 130.716 36.2973C131.242 36.2973 131.647 36.1756 131.93 35.9322C132.219 35.6888 132.434 35.3435 132.575 34.8964L134.851 35.3803C134.585 36.3426 134.092 37.0841 133.373 37.6049C132.655 38.12 131.769 38.3775 130.716 38.3775ZM140.207 38.3775C139.267 38.3775 138.441 38.1766 137.728 37.7747C137.02 37.3671 136.465 36.8096 136.063 36.102C135.662 35.3888 135.461 34.5709 135.461 33.6482C135.461 32.6464 135.656 31.7775 136.046 31.0416C136.443 30.3001 136.986 29.7256 137.677 29.318C138.373 28.9048 139.171 28.6982 140.071 28.6982C141.033 28.6982 141.848 28.9246 142.516 29.3775C143.19 29.8246 143.688 30.4586 144.011 31.2794C144.333 32.0945 144.449 33.0539 144.359 34.1577H142.151V33.3426C142.146 32.3916 141.987 31.7039 141.676 31.2794C141.364 30.8492 140.863 30.6341 140.173 30.6341C139.369 30.6341 138.775 30.8803 138.39 31.3728C138.011 31.8652 137.821 32.5869 137.821 33.5379C137.821 34.4152 138.011 35.0945 138.39 35.5756C138.775 36.0568 139.335 36.2973 140.071 36.2973C140.541 36.2973 140.943 36.1954 141.277 35.9917C141.616 35.7822 141.874 35.4822 142.049 35.0917L144.274 35.7369C143.929 36.5747 143.385 37.2256 142.644 37.6898C141.902 38.1483 141.09 38.3775 140.207 38.3775ZM137.125 34.1577V32.4935H143.28V34.1577H137.125Z" fill="white"/>
</svg>
