<svg width="150" height="141" viewBox="0 0 150 141" fill="none" xmlns="http://www.w3.org/2000/svg">
<rect x="140.629" y="65.5959" width="9.37084" height="9.37084" fill="black"/>
<rect x="18.7505" y="65.5959" width="9.37084" height="9.37084" fill="black"/>
<rect y="65.5959" width="9.37084" height="9.37084" fill="black"/>
<rect x="46.8765" y="74.9667" width="9.37084" height="9.37084" fill="black"/>
<rect x="37.501" y="74.9667" width="9.37084" height="9.37084" fill="black"/>
<rect x="28.126" y="74.9667" width="9.37084" height="9.37084" fill="black"/>
<rect x="18.7505" y="74.9667" width="9.37084" height="9.37084" fill="black"/>
<rect y="74.9667" width="9.37084" height="9.37084" fill="black"/>
<rect x="121.879" y="84.3376" width="9.37084" height="9.37084" fill="black"/>
<rect x="37.501" y="84.3376" width="9.37084" height="9.37084" fill="black"/>
<rect x="18.7505" y="84.3376" width="9.37084" height="9.37084" fill="black"/>
<rect y="84.3376" width="9.37084" height="9.37084" fill="black"/>
<rect x="131.254" y="93.7084" width="9.37084" height="9.37084" fill="black"/>
<rect x="112.503" y="93.7084" width="9.37084" height="9.37084" fill="black"/>
<rect x="103.128" y="93.7084" width="9.37084" height="9.37084" fill="black"/>
<rect x="93.7527" y="93.7084" width="9.37084" height="9.37084" fill="black"/>
<rect x="65.627" y="93.7084" width="9.37084" height="9.37084" fill="black"/>
<rect x="46.8765" y="93.7084" width="9.37084" height="9.37084" fill="black"/>
<rect x="18.7505" y="93.7084" width="9.37084" height="9.37084" fill="black"/>
<rect y="93.7084" width="9.37084" height="9.37084" fill="black"/>
<rect x="56.2515" y="3.05176e-05" width="9.37084" height="9.37084" fill="black"/>
<rect x="46.8765" y="3.05176e-05" width="9.37084" height="9.37084" fill="black"/>
<rect x="37.501" y="3.05176e-05" width="9.37084" height="9.37084" fill="black"/>
<rect x="131.254" y="103.079" width="9.37084" height="9.37084" fill="black"/>
<rect x="84.3774" y="103.079" width="9.37084" height="9.37084" fill="black"/>
<rect x="65.627" y="103.079" width="9.37084" height="9.37084" fill="black"/>
<rect x="46.8765" y="103.079" width="9.37084" height="9.37084" fill="black"/>
<rect x="18.7505" y="103.079" width="9.37084" height="9.37084" fill="black"/>
<rect y="103.079" width="9.37084" height="9.37084" fill="black"/>
<rect x="131.254" y="9.37086" width="9.37084" height="9.37084" fill="black"/>
<rect x="121.879" y="9.37086" width="9.37084" height="9.37084" fill="black"/>
<rect x="112.503" y="9.37086" width="9.37084" height="9.37084" fill="black"/>
<rect x="103.128" y="9.37086" width="9.37084" height="9.37084" fill="black"/>
<rect x="93.7527" y="9.37086" width="9.37084" height="9.37084" fill="black"/>
<rect x="84.3774" y="9.37086" width="9.37084" height="9.37084" fill="black"/>
<rect x="75.0024" y="9.37086" width="9.37084" height="9.37084" fill="black"/>
<rect x="65.627" y="9.37086" width="9.37084" height="9.37084" fill="black"/>
<rect x="56.2515" y="9.37086" width="9.37084" height="9.37084" fill="black"/>
<rect x="37.501" y="9.37086" width="9.37084" height="9.37084" fill="black"/>
<rect x="28.126" y="9.37086" width="9.37084" height="9.37084" fill="black"/>
<rect x="18.7505" y="9.37086" width="9.37084" height="9.37084" fill="black"/>
<rect x="131.254" y="112.45" width="9.37084" height="9.37084" fill="black"/>
<rect x="84.3774" y="112.45" width="9.37084" height="9.37084" fill="black"/>
<rect x="65.627" y="112.45" width="9.37084" height="9.37084" fill="black"/>
<rect x="46.8765" y="112.45" width="9.37084" height="9.37084" fill="black"/>
<rect x="28.126" y="112.45" width="9.37084" height="9.37084" fill="black"/>
<rect x="18.7505" y="112.45" width="9.37084" height="9.37084" fill="black"/>
<rect x="9.37549" y="112.45" width="9.37084" height="9.37084" fill="black"/>
<rect x="140.629" y="18.7417" width="9.37084" height="9.37084" fill="black"/>
<rect x="56.2515" y="18.7417" width="9.37084" height="9.37084" fill="black"/>
<rect x="37.501" y="18.7417" width="9.37084" height="9.37084" fill="black"/>
<rect x="9.37549" y="18.7417" width="9.37084" height="9.37084" fill="black"/>
<rect x="131.254" y="121.821" width="9.37084" height="9.37084" fill="black"/>
<rect x="84.3774" y="121.821" width="9.37084" height="9.37084" fill="black"/>
<rect x="65.627" y="121.821" width="9.37084" height="9.37084" fill="black"/>
<rect x="46.8765" y="121.821" width="9.37084" height="9.37084" fill="black"/>
<rect x="112.503" y="28.1125" width="9.37084" height="9.37084" fill="black"/>
<rect x="103.128" y="28.1125" width="9.37084" height="9.37084" fill="black"/>
<rect x="65.627" y="28.1125" width="9.37084" height="9.37084" fill="black"/>
<rect y="28.1125" width="9.37084" height="9.37084" fill="black"/>
<rect x="140.629" y="131.192" width="9.37084" height="9.37084" fill="black"/>
<rect x="131.254" y="131.192" width="9.37084" height="9.37084" fill="black"/>
<rect x="84.3774" y="131.192" width="9.37084" height="9.37084" fill="black"/>
<rect x="75.0024" y="131.192" width="9.37084" height="9.37084" fill="black"/>
<rect x="65.627" y="131.192" width="9.37084" height="9.37084" fill="black"/>
<rect x="46.8765" y="131.192" width="9.37084" height="9.37084" fill="black"/>
<rect x="121.879" y="37.4834" width="9.37084" height="9.37084" fill="black"/>
<rect x="103.128" y="37.4834" width="9.37084" height="9.37084" fill="black"/>
<rect x="65.627" y="37.4834" width="9.37084" height="9.37084" fill="black"/>
<rect x="37.501" y="37.4834" width="9.37084" height="9.37084" fill="black"/>
<rect y="37.4834" width="9.37084" height="9.37084" fill="black"/>
<rect x="121.879" y="46.8542" width="9.37084" height="9.37084" fill="black"/>
<rect x="112.503" y="46.8542" width="9.37084" height="9.37084" fill="black"/>
<rect x="65.627" y="46.8542" width="9.37084" height="9.37084" fill="black"/>
<rect x="56.2515" y="46.8542" width="9.37084" height="9.37084" fill="black"/>
<rect x="46.8765" y="46.8542" width="9.37084" height="9.37084" fill="black"/>
<rect x="37.501" y="46.8542" width="9.37084" height="9.37084" fill="black"/>
<rect y="46.8542" width="9.37084" height="9.37084" fill="black"/>
<rect x="131.254" y="56.2251" width="9.37084" height="9.37084" fill="black"/>
<rect y="56.2251" width="9.37084" height="9.37084" fill="black"/>
</svg>
