<svg width="150" height="141" viewBox="0 0 150 141" fill="none" xmlns="http://www.w3.org/2000/svg">
<rect width="9.37084" height="9.37084" transform="matrix(-1 0 0 1 9.37109 65.5959)" fill="#dfdfdf"/>
<rect width="9.37084" height="9.37084" transform="matrix(-1 0 0 1 131.25 65.5959)" fill="#dfdfdf"/>
<rect width="9.37084" height="9.37084" transform="matrix(-1 0 0 1 150 65.5959)" fill="#dfdfdf"/>
<rect width="9.37084" height="9.37084" transform="matrix(-1 0 0 1 103.124 74.9667)" fill="#dfdfdf"/>
<rect width="9.37084" height="9.37084" transform="matrix(-1 0 0 1 112.499 74.9667)" fill="#dfdfdf"/>
<rect width="9.37084" height="9.37084" transform="matrix(-1 0 0 1 121.874 74.9667)" fill="#dfdfdf"/>
<rect width="9.37084" height="9.37084" transform="matrix(-1 0 0 1 131.25 74.9667)" fill="#dfdfdf"/>
<rect width="9.37084" height="9.37084" transform="matrix(-1 0 0 1 150 74.9667)" fill="#dfdfdf"/>
<rect width="9.37084" height="9.37084" transform="matrix(-1 0 0 1 28.1216 84.3376)" fill="#dfdfdf"/>
<rect width="9.37084" height="9.37084" transform="matrix(-1 0 0 1 112.499 84.3376)" fill="#dfdfdf"/>
<rect width="9.37084" height="9.37084" transform="matrix(-1 0 0 1 131.25 84.3376)" fill="#dfdfdf"/>
<rect width="9.37084" height="9.37084" transform="matrix(-1 0 0 1 150 84.3376)" fill="#dfdfdf"/>
<rect width="9.37084" height="9.37084" transform="matrix(-1 0 0 1 18.7461 93.7084)" fill="#dfdfdf"/>
<rect width="9.37084" height="9.37084" transform="matrix(-1 0 0 1 37.4966 93.7084)" fill="#dfdfdf"/>
<rect width="9.37084" height="9.37084" transform="matrix(-1 0 0 1 46.8721 93.7084)" fill="#dfdfdf"/>
<rect width="9.37084" height="9.37084" transform="matrix(-1 0 0 1 56.2471 93.7084)" fill="#dfdfdf"/>
<rect width="9.37084" height="9.37084" transform="matrix(-1 0 0 1 84.373 93.7084)" fill="#dfdfdf"/>
<rect width="9.37084" height="9.37084" transform="matrix(-1 0 0 1 103.124 93.7084)" fill="#dfdfdf"/>
<rect width="9.37084" height="9.37084" transform="matrix(-1 0 0 1 131.25 93.7084)" fill="#dfdfdf"/>
<rect width="9.37084" height="9.37084" transform="matrix(-1 0 0 1 150 93.7084)" fill="#dfdfdf"/>
<rect width="9.37084" height="9.37084" transform="matrix(-1 0 0 1 93.7483 3.05176e-05)" fill="#dfdfdf"/>
<rect width="9.37084" height="9.37084" transform="matrix(-1 0 0 1 103.124 3.05176e-05)" fill="#dfdfdf"/>
<rect width="9.37084" height="9.37084" transform="matrix(-1 0 0 1 112.499 3.05176e-05)" fill="#dfdfdf"/>
<rect width="9.37084" height="9.37084" transform="matrix(-1 0 0 1 18.7461 103.079)" fill="#dfdfdf"/>
<rect width="9.37084" height="9.37084" transform="matrix(-1 0 0 1 65.6226 103.079)" fill="#dfdfdf"/>
<rect width="9.37084" height="9.37084" transform="matrix(-1 0 0 1 84.373 103.079)" fill="#dfdfdf"/>
<rect width="9.37084" height="9.37084" transform="matrix(-1 0 0 1 103.124 103.079)" fill="#dfdfdf"/>
<rect width="9.37084" height="9.37084" transform="matrix(-1 0 0 1 131.25 103.079)" fill="#dfdfdf"/>
<rect width="9.37084" height="9.37084" transform="matrix(-1 0 0 1 150 103.079)" fill="#dfdfdf"/>
<rect width="9.37084" height="9.37084" transform="matrix(-1 0 0 1 18.7461 9.37086)" fill="#dfdfdf"/>
<rect width="9.37084" height="9.37084" transform="matrix(-1 0 0 1 28.1216 9.37086)" fill="#dfdfdf"/>
<rect width="9.37084" height="9.37084" transform="matrix(-1 0 0 1 37.4966 9.37086)" fill="#dfdfdf"/>
<rect width="9.37084" height="9.37084" transform="matrix(-1 0 0 1 46.8721 9.37086)" fill="#dfdfdf"/>
<rect width="9.37084" height="9.37084" transform="matrix(-1 0 0 1 56.2471 9.37086)" fill="#dfdfdf"/>
<rect width="9.37084" height="9.37084" transform="matrix(-1 0 0 1 65.6226 9.37086)" fill="#dfdfdf"/>
<rect width="9.37084" height="9.37084" transform="matrix(-1 0 0 1 74.9976 9.37086)" fill="#dfdfdf"/>
<rect width="9.37084" height="9.37084" transform="matrix(-1 0 0 1 84.373 9.37086)" fill="#dfdfdf"/>
<rect width="9.37084" height="9.37084" transform="matrix(-1 0 0 1 93.7483 9.37086)" fill="#dfdfdf"/>
<rect width="9.37084" height="9.37084" transform="matrix(-1 0 0 1 112.499 9.37086)" fill="#dfdfdf"/>
<rect width="9.37084" height="9.37084" transform="matrix(-1 0 0 1 121.874 9.37086)" fill="#dfdfdf"/>
<rect width="9.37084" height="9.37084" transform="matrix(-1 0 0 1 131.25 9.37086)" fill="#dfdfdf"/>
<rect width="9.37084" height="9.37084" transform="matrix(-1 0 0 1 18.7461 112.45)" fill="#dfdfdf"/>
<rect width="9.37084" height="9.37084" transform="matrix(-1 0 0 1 65.6226 112.45)" fill="#dfdfdf"/>
<rect width="9.37084" height="9.37084" transform="matrix(-1 0 0 1 84.373 112.45)" fill="#dfdfdf"/>
<rect width="9.37084" height="9.37084" transform="matrix(-1 0 0 1 103.124 112.45)" fill="#dfdfdf"/>
<rect width="9.37084" height="9.37084" transform="matrix(-1 0 0 1 121.874 112.45)" fill="#dfdfdf"/>
<rect width="9.37084" height="9.37084" transform="matrix(-1 0 0 1 131.25 112.45)" fill="#dfdfdf"/>
<rect width="9.37084" height="9.37084" transform="matrix(-1 0 0 1 140.625 112.45)" fill="#dfdfdf"/>
<rect width="9.37084" height="9.37084" transform="matrix(-1 0 0 1 9.37109 18.7417)" fill="#dfdfdf"/>
<rect width="9.37084" height="9.37084" transform="matrix(-1 0 0 1 93.7483 18.7417)" fill="#dfdfdf"/>
<rect width="9.37084" height="9.37084" transform="matrix(-1 0 0 1 112.499 18.7417)" fill="#dfdfdf"/>
<rect width="9.37084" height="9.37084" transform="matrix(-1 0 0 1 140.625 18.7417)" fill="#dfdfdf"/>
<rect width="9.37084" height="9.37084" transform="matrix(-1 0 0 1 18.7461 121.821)" fill="#dfdfdf"/>
<rect width="9.37084" height="9.37084" transform="matrix(-1 0 0 1 65.6226 121.821)" fill="#dfdfdf"/>
<rect width="9.37084" height="9.37084" transform="matrix(-1 0 0 1 84.373 121.821)" fill="#dfdfdf"/>
<rect width="9.37084" height="9.37084" transform="matrix(-1 0 0 1 103.124 121.821)" fill="#dfdfdf"/>
<rect width="9.37084" height="9.37084" transform="matrix(-1 0 0 1 37.4966 28.1125)" fill="#dfdfdf"/>
<rect width="9.37084" height="9.37084" transform="matrix(-1 0 0 1 46.8721 28.1125)" fill="#dfdfdf"/>
<rect width="9.37084" height="9.37084" transform="matrix(-1 0 0 1 84.373 28.1125)" fill="#dfdfdf"/>
<rect width="9.37084" height="9.37084" transform="matrix(-1 0 0 1 150 28.1125)" fill="#dfdfdf"/>
<rect width="9.37084" height="9.37084" transform="matrix(-1 0 0 1 9.37109 131.192)" fill="#dfdfdf"/>
<rect width="9.37084" height="9.37084" transform="matrix(-1 0 0 1 18.7461 131.192)" fill="#dfdfdf"/>
<rect width="9.37084" height="9.37084" transform="matrix(-1 0 0 1 65.6226 131.192)" fill="#dfdfdf"/>
<rect width="9.37084" height="9.37084" transform="matrix(-1 0 0 1 74.9976 131.192)" fill="#dfdfdf"/>
<rect width="9.37084" height="9.37084" transform="matrix(-1 0 0 1 84.373 131.192)" fill="#dfdfdf"/>
<rect width="9.37084" height="9.37084" transform="matrix(-1 0 0 1 103.124 131.192)" fill="#dfdfdf"/>
<rect width="9.37084" height="9.37084" transform="matrix(-1 0 0 1 28.1216 37.4834)" fill="#dfdfdf"/>
<rect width="9.37084" height="9.37084" transform="matrix(-1 0 0 1 46.8721 37.4834)" fill="#dfdfdf"/>
<rect width="9.37084" height="9.37084" transform="matrix(-1 0 0 1 84.373 37.4834)" fill="#dfdfdf"/>
<rect width="9.37084" height="9.37084" transform="matrix(-1 0 0 1 112.499 37.4834)" fill="#dfdfdf"/>
<rect width="9.37084" height="9.37084" transform="matrix(-1 0 0 1 150 37.4834)" fill="#dfdfdf"/>
<rect width="9.37084" height="9.37084" transform="matrix(-1 0 0 1 28.1216 46.8542)" fill="#dfdfdf"/>
<rect width="9.37084" height="9.37084" transform="matrix(-1 0 0 1 37.4966 46.8542)" fill="#dfdfdf"/>
<rect width="9.37084" height="9.37084" transform="matrix(-1 0 0 1 84.373 46.8542)" fill="#dfdfdf"/>
<rect width="9.37084" height="9.37084" transform="matrix(-1 0 0 1 93.7483 46.8542)" fill="#dfdfdf"/>
<rect width="9.37084" height="9.37084" transform="matrix(-1 0 0 1 103.124 46.8542)" fill="#dfdfdf"/>
<rect width="9.37084" height="9.37084" transform="matrix(-1 0 0 1 112.499 46.8542)" fill="#dfdfdf"/>
<rect width="9.37084" height="9.37084" transform="matrix(-1 0 0 1 150 46.8542)" fill="#dfdfdf"/>
<rect width="9.37084" height="9.37084" transform="matrix(-1 0 0 1 18.7461 56.2251)" fill="#dfdfdf"/>
<rect width="9.37084" height="9.37084" transform="matrix(-1 0 0 1 150 56.2251)" fill="#dfdfdf"/>
</svg>
