<svg width="150" height="157" viewBox="0 0 150 157" fill="none" xmlns="http://www.w3.org/2000/svg">
<rect x="93.6145" y="94.0402" width="10.4495" height="10.4495" fill="#1b1b1b"/>
<rect x="51.7969" y="94.0402" width="10.4495" height="10.4495" fill="#1b1b1b"/>
<rect x="41.3425" y="94.0402" width="10.4495" height="10.4495" fill="#1b1b1b"/>
<rect x="83.1602" y="114.939" width="10.4495" height="10.4495" fill="#1b1b1b"/>
<rect x="93.6145" y="104.544" width="10.4495" height="10.4495" fill="#1b1b1b"/>
<rect x="62.2512" y="114.939" width="10.4495" height="10.4495" fill="#1b1b1b"/>
<rect x="139.551" y="104.544" width="10.4495" height="10.4495" fill="#1b1b1b"/>
<rect x="72.7056" y="125.389" width="10.4495" height="10.4495" fill="#1b1b1b"/>
<rect x="72.7056" y="20.894" width="10.4495" height="10.4495" fill="#1b1b1b"/>
<rect x="83.1602" y="31.3434" width="10.4495" height="10.4495" fill="#1b1b1b"/>
<rect x="62.2512" y="31.3434" width="10.4495" height="10.4495" fill="#1b1b1b"/>
<rect x="51.7969" y="41.8177" width="10.4495" height="10.4495" fill="#1b1b1b"/>
<rect x="93.6145" y="1.52588e-05" width="10.4495" height="10.4495" fill="#1b1b1b"/>
<rect x="43.5601" y="146.203" width="10.4495" height="10.4495" fill="#1b1b1b"/>
<rect x="93.6145" y="52.2424" width="10.4495" height="10.4495" fill="#1b1b1b"/>
<rect x="104.069" y="52.2721" width="10.4495" height="10.4495" fill="#1b1b1b"/>
<rect x="51.7969" y="52.2424" width="10.4495" height="10.4495" fill="#1b1b1b"/>
<rect x="114.523" y="62.6918" width="10.4495" height="10.4495" fill="#1b1b1b"/>
<rect x="83.1602" y="62.6918" width="10.4495" height="10.4495" fill="#1b1b1b"/>
<rect x="62.2512" y="62.6918" width="10.4495" height="10.4495" fill="#1b1b1b"/>
<rect x="30.8879" y="62.6918" width="10.4495" height="10.4495" fill="#1b1b1b"/>
<rect x="124.978" y="73.1413" width="10.4495" height="10.4495" fill="#1b1b1b"/>
<rect x="72.7056" y="73.1413" width="10.4495" height="10.4495" fill="#1b1b1b"/>
<rect x="20.4336" y="73.1413" width="10.4495" height="10.4495" fill="#1b1b1b"/>
<rect x="30.8879" y="83.6353" width="10.4495" height="10.4495" fill="#1b1b1b"/>
<rect x="114.523" y="83.5907" width="10.4495" height="10.4495" fill="#1b1b1b"/>
<rect x="83.1602" y="83.5907" width="10.4495" height="10.4495" fill="#1b1b1b"/>
<rect x="62.2512" y="83.5907" width="10.4495" height="10.4495" fill="#1b1b1b"/>
<rect y="41.8177" width="10.4495" height="10.4495" fill="#1b1b1b"/>
</svg>
