<svg width="100" height="100" viewBox="0 0 100 100" fill="none" xmlns="http://www.w3.org/2000/svg">
<rect width="100" height="100" rx="5" fill="white"/>
<g clip-path="url(#clip0_6235_28925)">
<g clip-path="url(#clip1_6235_28925)">
<path d="M25.4019 68.5147V75H23.4301V68.5147H21.124V66.83H27.7079L26.5481 68.5147H25.4019Z" fill="#0F1D4F"/>
<path d="M32.8332 75V71.5841H29.651V75H27.6792V66.8293H29.651V69.9219H32.8332V66.8293H34.805V75H32.8332Z" fill="#0F1D4F"/>
<path d="M42.0228 75L41.3888 73.3955H38.2299L37.6303 75H35.4854L38.9096 66.8293H40.8237L44.2134 75H42.0228ZM39.8321 69.0105L38.7941 71.8151H40.8469L39.8321 69.0105Z" fill="#0F1D4F"/>
<path d="M44.8931 75V66.8293H46.8761V75H44.8931Z" fill="#0F1D4F"/>
<path d="M48.0977 75V66.8293H50.0807V73.28H53.2396L52.5462 74.9992H48.0977V75Z" fill="#0F1D4F"/>
<path d="M59.6971 75L59.0631 73.3955H55.9042L55.3046 75H53.1597L56.5839 66.8293H58.498L61.8877 75H59.6971ZM57.5065 69.0105L56.4685 71.8151H58.5212L57.5065 69.0105Z" fill="#0F1D4F"/>
<path d="M67.9872 75L64.7009 69.6571H64.6664L64.7129 75H62.7988V66.8293H65.0472L68.3215 72.1609H68.356L68.3095 66.8293H70.2236V75H67.9864H67.9872Z" fill="#0F1D4F"/>
<path d="M78.8355 70.8918C78.8355 71.6073 78.7032 72.2243 78.4379 72.7441C78.1726 73.2632 77.8231 73.6908 77.3887 74.0253C76.9542 74.3598 76.4645 74.6061 75.9186 74.7641C75.3728 74.9222 74.8189 75.0008 74.2586 75.0008H71.2144V66.83H74.1665C74.7428 66.83 75.3119 66.8974 75.873 67.0322C76.434 67.167 76.9334 67.39 77.3718 67.7013C77.8103 68.0125 78.1638 68.4305 78.4323 68.9536C78.7016 69.4766 78.8355 70.1232 78.8355 70.8926V70.8918ZM76.7827 70.8918C76.7827 70.4305 76.7074 70.0478 76.5575 69.7438C76.4076 69.4397 76.208 69.1974 75.9579 69.0169C75.7078 68.8364 75.4233 68.7073 75.1051 68.6303C74.7861 68.5532 74.4574 68.5147 74.1192 68.5147H73.1389V73.292H74.0727C74.4262 73.292 74.766 73.2519 75.093 73.1709C75.4193 73.0899 75.7078 72.9575 75.9579 72.773C76.208 72.5885 76.4076 72.3422 76.5575 72.0341C76.7074 71.7269 76.7827 71.3458 76.7827 70.8918Z" fill="#0F1D4F"/>
<path d="M66.3932 41.1474L52.7974 62.1113H41.9067L56.0148 41.1474H66.3932Z" fill="url(#paint0_linear_6235_28925)"/>
<path opacity="0.5" d="M53.6422 44.6732L41.9067 62.1113C48.1596 60.3296 54.1993 55.6838 53.6422 44.6732Z" fill="#181919"/>
<path d="M53.6476 39.3712L53.6412 44.743C53.5402 53.2226 49.712 58.0777 43.4592 59.8594C41.5956 60.3905 39.5195 60.6521 37.2608 60.6521C27.3689 60.6521 21.124 55.602 21.124 44.6507V26.4175L30.9165 25V44.451C30.9165 49.501 33.4647 51.9013 37.3618 51.9013C41.2589 51.9013 43.8567 49.6013 43.8567 44.7012V25H43.8647L53.6492 39.3712H53.6476Z" fill="url(#paint1_linear_6235_28925)"/>
<path d="M43.8633 25L67.6941 60.0014H78.8356L66.8453 42.0507L77.4858 26.3052H66.5944L61.1495 34.8506L55.6933 26.3052L43.8633 25Z" fill="url(#paint2_linear_6235_28925)"/>
<path opacity="0.5" d="M43.8633 25L53.6478 41.9504V39.3712L43.8633 25Z" fill="#181919"/>
<path opacity="0.5" d="M54.498 43.4008L55.4391 42.0017L60.7654 49.8251L59.4043 51.923L54.498 43.4008Z" fill="#181919"/>
</g>
</g>
<defs>
<linearGradient id="paint0_linear_6235_28925" x1="44.5911" y1="66.1907" x2="58.3017" y2="45.885" gradientUnits="userSpaceOnUse">
<stop stop-color="#098BD5"/>
<stop offset="1" stop-color="#1C3180"/>
</linearGradient>
<linearGradient id="paint1_linear_6235_28925" x1="23.6393" y1="44.8978" x2="51.7939" y2="39.2818" gradientUnits="userSpaceOnUse">
<stop stop-color="#2EE3EC"/>
<stop offset="1" stop-color="#098BD5"/>
</linearGradient>
<linearGradient id="paint2_linear_6235_28925" x1="82.0875" y1="57.0356" x2="59.289" y2="23.7667" gradientUnits="userSpaceOnUse">
<stop stop-color="#1C3180"/>
<stop offset="1" stop-color="#098BD5"/>
</linearGradient>
<clipPath id="clip0_6235_28925">
<rect width="57.71" height="50" fill="white" transform="translate(21.124 25)"/>
</clipPath>
<clipPath id="clip1_6235_28925">
<rect width="57.7114" height="50" fill="white" transform="translate(21.124 25)"/>
</clipPath>
</defs>
</svg>
